<?xml version="1.0" encoding="utf-8"?>
<!-- Generator: Adobe Illustrator 18.1.1, SVG Export Plug-In . SVG Version: 6.00 Build 0)  -->
<svg version="1.1" id="Layer_1" xmlns="http://www.w3.org/2000/svg" xmlns:xlink="http://www.w3.org/1999/xlink" x="0px" y="0px"
	 viewBox="0 0 297.6 298" enable-background="new 0 0 297.6 298" xml:space="preserve">
<g>
	<path fill="#4B9ECA" d="M287.8,149.5c0.4,26.4-6.8,50.6-20.9,73c-11.5,18.2-26.4,32.7-44.8,43.8c-18.5,11.1-38.5,17.6-60.1,18.9
		c-6.8,0.4-13.6,1.3-20.5-0.1c0.2-0.2,0.3-0.5,0.5-0.5c6,0.2,6.3-3.9,6.2-8.3c0.8-2.7,1.5-5.4,1.3-8.2c3.7-27.2,14.2-51.5,32.3-72.1
		c21.7-24.7,48.8-40.1,81.4-45.6c1.1-0.2,2.2-0.5,3.3-0.6c4,0,8-0.7,12-1.4C281.6,148.4,284.9,147.2,287.8,149.5z"/>
	<path fill="#12A183" d="M175.2,15.8c-7.2-0.1-14.3-1.7-21.6-1.5c-3.1,0.1-4.2,0.8-4,4c0.2,3.7,1.4,7.4,0.7,11.1
		c-2.1-0.3-0.4-2.1-0.8-2.5c-0.5,13.6-4.4,26.9-9.6,39.7c-6.4,15.9-15.9,30-27.8,42.3c-11.2,11.7-24.2,21.1-38.9,28.1
		C60.4,143.1,47,147.1,33,149.4c-4.4,0.3-8.7,0.8-13,1.3c-1.3,0.2-2.6,0.2-3.8-0.6C15.5,129.5,20,109.9,29,91.5
		C48.3,52.2,79.3,27.3,121.8,17c16.8-4.1,33.8-4.7,51-2C173.6,15.1,174.4,15.5,175.2,15.8z"/>
	<path fill="#2E5AA7" d="M16.2,150.1c1.3-0.1,2.7-0.2,4-0.3c4.2-0.3,8.4-0.2,12.6,0.1c13.1,1.8,25.6,5.6,37.5,11.1
		c13,6,24.8,13.8,35.4,23.4c11,9.9,19.8,21.4,27.1,34.1c7.3,12.6,12.1,26.2,14.9,40.5c0.5,2.3,1,4.6,1.4,7c0,3.3,0.9,6.6-0.1,9.9
		c0,0.4-0.1,0.7-0.1,1.1c0,7.6,0,7.6-7.5,8.1c-31.1-2.4-58.2-14.2-81.2-35.2c-23.7-21.7-37.8-48.6-42.8-80.3
		C16.4,163.1,16,156.6,16.2,150.1z"/>
	<path fill="#1F8D48" d="M287.8,149.5c-3.3,0-6.5,0-9.8,0c-5.3,0.5-10.6-0.1-15.9-0.7c-24.9-4.5-47.2-14.8-66.2-31.4
		c-26-22.7-41.5-51.4-46.3-85.7c-0.2-1.1-0.2-2.2-0.2-3.4c0.4-3.5-1-6.9-0.8-10.4c0.1-2.8,0.9-4.1,4.2-4.1c7.5,0,15,0.8,22.4,1.9
		c16.3,2.3,31.4,8.1,45.4,16.4c27.8,16.4,47.6,39.8,59,70.1C285.3,117.5,288.4,133.2,287.8,149.5z"/>
</g>
</svg>
